#!OML:ASF F:\VICON\USERDATA\INSTALL\rory3\rory3.ASF
:FULLY-SPECIFIED
:DEGREES
4157
root 13.5788 18.0075 -9.71447 1436.68 58.5948 -1439.74
lowerback 11.3773 1.31118 1.04604
upperback 0.602975 1.98102 1.31342
thorax -5.76313 0.973522 0.465993
lowerneck -18.6331 -5.31434 -11.7841
upperneck 35.5906 -5.58671 6.7454
head 16.5279 -2.75439 4.01627
rclavicle -2.02736e-013 7.15625e-015
rhumerus -35.0411 -8.64673 -81.1562
rradius 39.7076
rwrist 2.59426
rhand -16.76 9.26364
rfingers 7.12502
rthumb 9.46691 -20.5037
lclavicle -2.02736e-013 7.15625e-015
lhumerus -33.8263 4.91651 85.1067
lradius 31.605
lwrist -8.14133
lhand -22.0758 29.126
lfingers 7.12502
lthumb 4.33562 59.0616
rfemur -9.59795 -6.84927 26.9893
rtibia 24.2194
rfoot -10.8887 -0.479513
rtoes 28.8916
lfemur -10.9222 0.943294 -19.7147
ltibia 53.7714
lfoot -5.42311 -9.81629
ltoes -3.32768
4158
root 13.6355 18.0004 -9.70505 1436.81 57.5748 -1439.56
lowerback 11.404 1.31953 0.951122
upperback 0.550702 1.97627 1.25444
thorax -5.83417 0.97181 0.457164
lowerneck -18.6175 -5.32891 -11.7412
upperneck 35.6658 -5.64587 6.76145
head 16.5692 -2.77527 4.00691
rclavicle 4.56459e-014 -1.66979e-014
rhumerus -35.0182 -8.66898 -81.2983
rradius 40.5172
rwrist 2.52636
rhand -16.7001 9.40435
rfingers 7.12502
rthumb 9.52468 -20.3604
lclavicle 4.56459e-014 -1.66979e-014
lhumerus -34.2982 5.17741 84.9746
lradius 31.1624
lwrist -7.72879
lhand -22.7794 29.486
lfingers 7.12502
lthumb 3.65614 59.4344
rfemur -9.42953 -6.32946 26.8344
rtibia 24.3651
rfoot -10.4744 0.210965
rtoes 25.3236
lfemur -11.3688 0.587051 -19.7776
ltibia 53.7728
lfoot -4.13026 -3.11727
ltoes -9.1333
4159
root 13.6897 17.9953 -9.70573 1437.04 56.612 -1439.35
lowerback 11.369 1.22407 0.851802
upperback 0.531505 1.83489 1.24478
thorax -5.83708 0.904547 0.526463
lowerneck -18.6643 -5.30011 -11.926
upperneck 35.6614 -5.60871 6.93197
head 16.5888 -2.76658 4.1228
rclavicle 3.88873e-014 -1.19271e-015
rhumerus -34.8651 -8.35004 -81.474
rradius 41.4058
rwrist 2.22208
rhand -16.7709 9.23553
rfingers 7.12502
rthumb 9.45645 -20.5323
lclavicle 3.88873e-014 -1.19271e-015
lhumerus -33.5706 9.48361 83.5135
lradius 28.3145
lwrist -11.2267
lhand -22.9247 28.1867
lfingers 7.12502
lthumb 3.51579 58.1375
rfemur -9.41439 -5.78791 26.594
rtibia 24.5869
rfoot -10.1217 1.01306
rtoes 22.8905
lfemur -11.8534 0.0365981 -19.8946
ltibia 53.5803
lfoot -4.89712 -1.57707
ltoes -12.8311
4160
root 13.7449 17.9892 -9.71546 1437.11 55.6995 -1439.3
lowerback 11.3582 1.11761 0.915211
upperback 0.556532 1.69907 1.21641
thorax -5.80114 0.835874 0.48349
lowerneck -18.7922 -5.37543 -12.0947
upperneck 35.6254 -5.75308 7.16319
head 16.6397 -2.82156 4.22493
rclavicle 2.15433e-014 -9.54166e-015
rhumerus -34.557 -8.06034 -81.6966
rradius 42.3786
rwrist 1.05196
rhand -16.5315 8.94491
rfingers 7.12502
rthumb 9.68743 -20.8123
lclavicle 2.15433e-014 -9.54166e-015
lhumerus -34.7388 6.80096 84.5496
lradius 29.9221
lwrist -7.67049
lhand -22.6612 29.5664
lfingers 7.12502
lthumb 3.77026 59.5128
rfemur -9.37395 -5.67172 26.4097
rtibia 24.7189
rfoot -10.2806 2.01299
rtoes 24.2196
lfemur -12.273 -0.626062 -19.9083
ltibia 53.2397
lfoot -5.3988 -0.796072
ltoes -13.2932
4161
root 13.8038 17.9901 -9.72247 1437.16 54.6835 -1439.2
lowerback 11.4033 1.0722 0.970586
upperback 0.546164 1.64055 1.12708
thorax -5.83279 0.803901 0.36721
lowerneck -18.8404 -5.51419 -12.0161
upperneck 35.6143 -6.0322 7.22533
head 16.6843 -2.9218 4.1804
rclavicle -8.68192e-014 7.95139e-016
rhumerus -34.4529 -7.95192 -81.9363
rradius 43.4647
rwrist 0.0340389
rhand -16.1326 8.48544
rfingers 7.12502
rthumb 10.0722 -21.2535
lclavicle -8.68192e-014 7.95139e-016
lhumerus -35.0828 6.73095 84.5565
lradius 29.5224
lwrist -7.15142
lhand -22.7891 30.4965
lfingers 7.12502
lthumb 3.64677 60.445
rfemur -9.22706 -5.67431 26.2531
rtibia 24.7629
rfoot -10.4108 2.93417
rtoes 23.2802
lfemur -12.5634 -1.03432 -19.8729
ltibia 52.7552
lfoot -5.92236 -0.482443
ltoes -13.2199
4162
root 13.86 17.9978 -9.7231 1437.17 53.5243 -1439.13
lowerback 11.5006 1.08857 0.986159
upperback 0.484292 1.66225 1.06903
thorax -5.95044 0.812044 0.29155
lowerneck -18.6518 -5.60038 -11.9581
upperneck 35.5395 -6.2481 7.28974
head 16.6294 -3.00004 4.15187
rclavicle -7.10655e-015 -1.03368e-014
rhumerus -34.5215 -7.58726 -82.2349
rradius 44.0643
rwrist 0.777648
rhand -17.4836 8.90981
rfingers 7.12502
rthumb 8.76871 -20.888
lclavicle -7.10655e-015 -1.03368e-014
lhumerus -35.4625 6.78907 84.5183
lradius 28.9168
lwrist -7.05259
lhand -22.5634 30.1427
lfingers 7.12502
lthumb 3.86467 60.0874
rfemur -9.0367 -5.29999 26.1361
rtibia 24.7839
rfoot -10.4959 3.67819
rtoes 22.5171
lfemur -12.791 -1.47833 -19.7741
ltibia 52.1752
lfoot -6.55942 -0.0931723
ltoes -13.0037
4163
root 13.9154 17.9982 -9.72288 1437.08 52.4035 -1439.18
lowerback 11.6252 1.02567 1.19205
upperback 0.432542 1.60082 0.956268
thorax -6.06603 0.773224 0.0644816
lowerneck -18.5071 -5.56804 -11.8922
upperneck 35.4418 -6.32127 7.46165
head 16.5567 -3.00331 4.19892
rclavicle 5.61567e-015 -7.55382e-015
rhumerus -34.4712 -7.34834 -82.5319
rradius 44.9644
rwrist 0.0625822
rhand -17.2082 9.17499
rfingers 7.12502
rthumb 9.03445 -20.6115
lclavicle 5.61567e-015 -7.55382e-015
lhumerus -35.7092 7.29746 84.1626
lradius 28.1163
lwrist -7.6299
lhand -19.6731 27.2049
lfingers 7.12502
lthumb 6.65542 57.0803
rfemur -8.86383 -4.84712 26.0775
rtibia 24.8405
rfoot -10.5393 4.46735
rtoes 21.4517
lfemur -12.9904 -2.31613 -19.636
ltibia 51.5157
lfoot -7.12218 0.399027
ltoes -12.2757
4164
root 13.9744 17.9814 -9.72477 1436.92 51.3104 -1439.38
lowerback 11.7604 0.931803 1.58748
upperback 0.329199 1.52273 0.809019
thorax -6.23736 0.718924 -0.303406
lowerneck -18.3697 -5.57499 -11.8141
upperneck 35.3683 -6.47749 7.68159
head 16.5125 -3.0331 4.25001
rclavicle -1.03989e-014 1.31198e-014
rhumerus -34.4944 -7.26528 -82.9376
rradius 45.7862
rwrist -0.35825
rhand -17.4166 9.50805
rfingers 7.12502
rthumb 8.83338 -20.2871
lclavicle -1.03989e-014 1.31198e-014
lhumerus -36.0781 7.78139 83.6447
lradius 27.4568
lwrist -8.55413
lhand -16.662 25.0573
lfingers 7.12502
lthumb 9.56147 54.8204
rfemur -8.78256 -4.47771 26.1285
rtibia 24.9802
rfoot -10.5654 5.27555
rtoes 19.2046
lfemur -13.1985 -3.53383 -19.4161
ltibia 50.81
lfoot -7.54463 0.939883
ltoes -10.1385
4165
root 14.0365 17.966 -9.72689 1436.92 50.1654 -1439.44
lowerback 11.74 0.920987 1.63594
upperback 0.252907 1.51826 0.861059
thorax -6.30708 0.714727 -0.275596
lowerneck -18.23 -5.66824 -11.9019
upperneck 35.291 -6.63755 7.7321
head 16.4694 -3.11096 4.25172
rclavicle -1.13307e-014 1.98785e-015
rhumerus -34.5392 -7.0564 -83.0396
rradius 46.5261
rwrist -0.580523
rhand -17.7993 9.72206
rfingers 7.12502
rthumb 8.46401 -20.0883
lclavicle -1.13307e-014 1.98785e-015
lhumerus -36.5667 7.59998 83.8524
lradius 27.1652
lwrist -8.50612
lhand -17.2248 26.0532
lfingers 7.12502
lthumb 9.01845 55.8404
rfemur -8.82205 -4.10269 26.0882
rtibia 25.2809
rfoot -10.754 6.10995
rtoes 18.1903
lfemur -13.3723 -4.7974 -19.2329
ltibia 50.0207
lfoot -8.06174 1.36288
ltoes -7.21301
4166
root 14.0957 17.9614 -9.72981 1436.88 48.9687 -1439.55
lowerback 11.5436 0.922225 1.33857
upperback 0.30512 1.49492 1.16203
thorax -6.15765 0.718526 0.21593
lowerneck -18.2362 -5.74956 -12.0159
upperneck 35.1961 -6.65815 7.5347
head 16.4228 -3.16725 4.17075
rclavicle -3.00413e-014 -5.56597e-015
rhumerus -34.4069 -6.38352 -82.9735
rradius 47.361
rwrist -0.983038
rhand -17.9744 9.34092
rfingers 7.12502
rthumb 8.29501 -20.4762
lclavicle -3.00413e-014 -5.56597e-015
lhumerus -36.8375 7.80619 84.3074
lradius 26.7858
lwrist -8.73797
lhand -18.1824 26.9278
lfingers 7.12502
lthumb 8.09427 56.7528
rfemur -8.88494 -3.73503 26.0755
rtibia 25.6376
rfoot -10.8986 6.9756
rtoes 18.947
lfemur -13.5649 -5.90214 -18.9902
ltibia 49.1335
lfoot -8.51845 1.71702
ltoes -7.29895
4167
root 14.156 17.9624 -9.7343 1436.75 47.7137 -1439.73
lowerback 11.4471 0.933547 1.2303
upperback 0.339621 1.5076 1.38221
thorax -6.07598 0.73208 0.507833
lowerneck -18.2121 -5.85724 -12.0799
upperneck 35.1199 -6.74734 7.35357
head 16.3864 -3.24316 4.07622
rclavicle 4.09248e-014 2.0276e-014
rhumerus -34.3416 -5.76313 -82.9383
rradius 48.324
rwrist -1.38488
rhand -17.8067 9.00168
rfingers 7.12502
rthumb 8.45691 -20.809
lclavicle 4.09248e-014 2.0276e-014
lhumerus -36.9733 8.73569 84.1733
lradius 25.994
lwrist -10.4724
lhand -17.4107 26.012
lfingers 7.12502
lthumb 8.83904 55.8068
rfemur -8.83335 -3.49209 26.1047
rtibia 25.9188
rfoot -11.1931 7.88224
rtoes 18.6994
lfemur -13.7061 -6.9303 -18.6918
ltibia 48.1276
lfoot -9.02886 1.92781
ltoes -8.69774
4168
root 14.2193 17.9609 -9.73711 1436.64 46.3981 -1439.88
lowerback 11.4021 0.866033 1.36187
upperback 0.364929 1.43557 1.41548
thorax -6.02154 0.693827 0.481357
lowerneck -18.2047 -5.85817 -12.0927
upperneck 35.0561 -6.79273 7.43399
head 16.3625 -3.25817 4.10113
rclavicle 1.39398e-014 -8.74653e-015
rhumerus -34.1513 -5.21969 -83.131
rradius 49.0893
rwrist -1.44063
rhand -17.6054 9.1157
rfingers 7.12502
rthumb 8.65113 -20.687
lclavicle 1.39398e-014 -8.74653e-015
lhumerus -37.1309 9.73889 83.7475
lradius 25.272
lwrist -12.287
lhand -16.0375 25.4018
lfingers 7.12502
lthumb 10.164 55.1363
rfemur -8.73004 -3.20014 26.1221
rtibia 26.0885
rfoot -11.6486 8.77642
rtoes 17.9513
lfemur -13.7614 -8.02798 -18.3564
ltibia 47.0386
lfoot -9.62143 2.15954
ltoes -8.66585
4169
root 14.2833 17.9586 -9.7371 1436.66 45.0748 -1439.91
lowerback 11.2709 0.744796 1.57708
upperback 0.437645 1.28891 1.28611
thorax -5.86318 0.615021 0.250645
lowerneck -18.2895 -5.82666 -12.0508
upperneck 34.9348 -6.84022 7.62366
head 16.3337 -3.25071 4.16169
rclavicle 4.09993e-015 -3.97569e-015
rhumerus -33.82 -4.79109 -83.5785
rradius 49.6818
rwrist -1.43345
rhand -17.5154 9.29684
rfingers 7.12502
rthumb 8.73804 -20.5023
lclavicle 4.09993e-015 -3.97569e-015
lhumerus -37.2625 10.1651 83.4309
lradius 24.847
lwrist -13.2195
lhand -14.006 24.7223
lfingers 7.12502
lthumb 12.1233 54.3511
rfemur -8.67317 -2.67569 26.04
rtibia 26.2127
rfoot -11.9149 9.50429
rtoes 17.9456
lfemur -13.8234 -9.22744 -18.094
ltibia 45.8961
lfoot -9.87506 2.63663
ltoes -8.77821
4170
root 14.3432 17.9591 -9.73811 1436.69 43.8026 -1439.9
lowerback 11.1295 0.639286 1.6241
upperback 0.555911 1.14634 1.24766
thorax -5.65821 0.545136 0.209082
lowerneck -18.4162 -5.84538 -11.9497
upperneck 34.7493 -6.91946 7.65704
head 16.2765 -3.2688 4.13077
rclavicle -7.88678e-014 1.31198e-014
rhumerus -33.5461 -4.3641 -83.9053
rradius 50.401
rwrist -1.50924
rhand -17.6157 9.55029
rfingers 7.12502
rthumb 8.64118 -20.2529
lclavicle -7.88678e-014 1.31198e-014
lhumerus -37.2765 10.6589 83.1798
lradius 24.344
lwrist -13.8532
lhand -12.9741 22.336
lfingers 7.12502
lthumb 13.1181 51.9034
rfemur -8.58881 -2.31315 25.9352
rtibia 26.3086
rfoot -12.2512 10.1488
rtoes 16.8274
lfemur -13.9148 -10.4565 -17.8509
ltibia 44.7417
lfoot -9.98286 2.81083
ltoes -10.2307
